<svg xmlns="http://www.w3.org/2000/svg" width="24" height="24" viewBox="0 0 24 24" fill="null" stroke="#4F5B3A" stroke-width="1px" stroke-linecap="round" stroke-linejoin="round" stroke-dashoffset="0px" opacity="1" fill-opacity="1" stroke-opacity="1" font-family="&quot;DM Sans&quot;, &quot;DM Sans Fallback&quot;, sans-serif" font-size="16px" font-weight="400" text-anchor="start" dominant-baseline="auto" stop-color="#000000" stop-opacity="1"><path d="M12 5a3 3 0 1 1 3 3m-3-3a3 3 0 1 0-3 3m3-3v1M9 8a3 3 0 1 0 3 3M9 8h1m5 0a3 3 0 1 1-3 3m3-3h-1m-2 3v-1" fill="null" stroke="#4F5B3A" stroke-width="1px" stroke-linecap="round" stroke-linejoin="round" stroke-dashoffset="0px" opacity="1" fill-opacity="1" stroke-opacity="1" font-family="&quot;DM Sans&quot;, &quot;DM Sans Fallback&quot;, sans-serif" font-size="16px" font-weight="400" text-anchor="start" dominant-baseline="auto" stop-color="#000000" stop-opacity="1"></path><circle cx="12" cy="8" r="2" fill="null" stroke="#4F5B3A" stroke-width="1px" stroke-linecap="round" stroke-linejoin="round" stroke-dashoffset="0px" opacity="1" fill-opacity="1" stroke-opacity="1" font-family="&quot;DM Sans&quot;, &quot;DM Sans Fallback&quot;, sans-serif" font-size="16px" font-weight="400" text-anchor="start" dominant-baseline="auto" stop-color="#000000" stop-opacity="1"></circle><path d="M12 10v12" fill="null" stroke="#4F5B3A" stroke-width="1px" stroke-linecap="round" stroke-linejoin="round" stroke-dashoffset="0px" opacity="1" fill-opacity="1" stroke-opacity="1" font-family="&quot;DM Sans&quot;, &quot;DM Sans Fallback&quot;, sans-serif" font-size="16px" font-weight="400" text-anchor="start" dominant-baseline="auto" stop-color="#000000" stop-opacity="1"></path><path d="M12 22c4.2 0 7-1.667 7-5-4.2 0-7 1.667-7 5Z" fill="null" stroke="#4F5B3A" stroke-width="1px" stroke-linecap="round" stroke-linejoin="round" stroke-dashoffset="0px" opacity="1" fill-opacity="1" stroke-opacity="1" font-family="&quot;DM Sans&quot;, &quot;DM Sans Fallback&quot;, sans-serif" font-size="16px" font-weight="400" text-anchor="start" dominant-baseline="auto" stop-color="#000000" stop-opacity="1"></path><path d="M12 22c-4.2 0-7-1.667-7-5 4.2 0 7 1.667 7 5Z" fill="null" stroke="#4F5B3A" stroke-width="1px" stroke-linecap="round" stroke-linejoin="round" stroke-dashoffset="0px" opacity="1" fill-opacity="1" stroke-opacity="1" font-family="&quot;DM Sans&quot;, &quot;DM Sans Fallback&quot;, sans-serif" font-size="16px" font-weight="400" text-anchor="start" dominant-baseline="auto" stop-color="#000000" stop-opacity="1"></path></svg>